<svg t="1754547069908" class="icon" viewBox="0 0 1024 1024" version="1.1"
    xmlns="http://www.w3.org/2000/svg" p-id="3179" xmlns:xlink="http://www.w3.org/1999/xlink"
    width="200" height="200">
    <path
        d="M144.384 590.976A369.344 369.344 0 0 0 513.344 960a369.28 369.28 0 0 0 368.96-368.32c1.152-235.648-226.368-436.8-324.288-512.704a73.984 73.984 0 0 0-89.152 0c-98.112 74.496-325.632 273.28-324.48 512.064z m137.6 19.712a40.704 40.704 0 0 1 81.28 0c0 16.32 2.688 32.576 8.192 48a130.304 130.304 0 0 0 22.08 38.656c4.48 5.376 9.6 10.368 15.104 14.72 5.312 4.352 11.136 8.064 17.28 11.2a89.216 89.216 0 0 0 38.912 9.408 40.64 40.64 0 0 1 0 81.28c-100.8 0-182.848-91.136-182.848-203.264z"
        p-id="3180"></path>
</svg>