<svg t="1754546215882" class="icon" viewBox="0 0 1024 1024" version="1.1"
    xmlns="http://www.w3.org/2000/svg" p-id="4262" xmlns:xlink="http://www.w3.org/1999/xlink"
    width="200" height="200">
    <path
        d="M144.384 590.976A369.344 369.344 0 0 0 513.344 960a369.28 369.28 0 0 0 368.96-368.32c1.152-235.648-226.368-436.8-324.224-512.704a73.984 73.984 0 0 0-89.216 0c-98.112 74.496-325.632 273.28-324.48 512.064zM588.16 411.52l0.512 0.896 75.072 124.736h64.064c21.888 0 39.68 17.536 40 39.296v0.64c0 21.888-17.536 39.68-39.296 40.064h-87.424a40 40 0 0 1-33.984-18.944L606.72 597.76l-40.192-66.752-60.672 201.536a40 40 0 0 1-72 9.984l-0.512-0.896-75.072-124.48H294.208a40 40 0 0 1-39.936-39.36v-0.64c0-21.888 17.536-39.68 39.296-40h87.36c13.888 0 26.752 7.168 33.984 18.944l0.256 0.384 40.192 66.624 60.672-201.6A40 40 0 0 1 588.16 411.52z"
        p-id="4263"></path>
</svg>