<svg t="1754547181391" class="icon" viewBox="0 0 1024 1024" version="1.1"
    xmlns="http://www.w3.org/2000/svg" p-id="3328" xmlns:xlink="http://www.w3.org/1999/xlink"
    width="200" height="200">
    <path
        d="M593.408 96H430.592c-37.184 0-56.32 0.064-72 5.568a100.16 100.16 0 0 0-51.712 41.088c-8.896 14.08-13.248 32.64-21.696 68.864l-2.816 12.48h-36.992c-77.44 0-105.408 0-126.72 10.88-18.88 9.6-34.176 24.96-43.776 43.712C64 299.968 64 328 64 405.376v309.248c0 77.44 0 105.408 10.88 126.72 9.6 18.88 24.96 34.176 43.712 43.776 21.376 10.88 49.408 10.88 126.784 10.88h533.248c77.44 0 105.408 0 126.72-10.88 18.88-9.6 34.176-24.96 43.776-43.712 10.88-21.376 10.88-49.408 10.88-126.784V405.376c0-77.44 0-105.408-10.88-126.72a99.968 99.968 0 0 0-43.712-43.776c-21.376-10.88-49.408-10.88-126.784-10.88h-36.992l-2.816-12.48c-8.448-36.224-12.8-54.784-21.76-68.864a100.16 100.16 0 0 0-51.648-41.088C649.664 96 630.592 96 593.408 96z m94.592 432a176 176 0 1 1-352 0 176 176 0 0 1 352 0zM512 640a112 112 0 1 0 0-224A112 112 0 0 0 512 640z"
        p-id="3329"></path>
</svg>