<svg width="50" height="50" viewBox="0 0 50 50" fill="none" xmlns="http://www.w3.org/2000/svg">
<path d="M34.1446 14.5032C34.889 14.5032 35.4924 15.1066 35.4924 15.8509L35.4924 21.2875C35.4924 22.0318 34.889 22.6352 34.1446 22.6352L28.708 22.6352C27.9637 22.6352 27.3603 22.0318 27.3603 21.2875L27.3603 15.8509C27.3603 15.1066 27.9637 14.5032 28.708 14.5032L34.1446 14.5032Z" stroke="#555B72" stroke-width="2"/>
<path d="M34.1446 27.3637C34.889 27.3637 35.4924 27.967 35.4924 28.7114V34.148C35.4924 34.8923 34.889 35.4957 34.1446 35.4957L28.708 35.4957C27.9637 35.4957 27.3603 34.8923 27.3603 34.148L27.3603 28.7114C27.3603 27.967 27.9637 27.3637 28.708 27.3637L34.1446 27.3637Z" stroke="#555B72" stroke-width="2"/>
<path d="M21.2842 14.5032C22.0285 14.5032 22.6319 15.1066 22.6319 15.8509V21.2875C22.6319 22.0318 22.0285 22.6352 21.2842 22.6352L15.8475 22.6352C15.1032 22.6352 14.4998 22.0318 14.4998 21.2875L14.4998 15.8509C14.4998 15.1066 15.1032 14.5032 15.8475 14.5032H21.2842Z" stroke="#555B72" stroke-width="2"/>
<path d="M21.2842 27.3637C22.0285 27.3637 22.6319 27.967 22.6319 28.7114L22.6319 34.148C22.6319 34.8923 22.0285 35.4957 21.2842 35.4957L15.8475 35.4957C15.1032 35.4957 14.4998 34.8923 14.4998 34.148L14.4998 28.7114C14.4998 27.967 15.1032 27.3637 15.8475 27.3637L21.2842 27.3637Z" stroke="#555B72" stroke-width="2"/>
</svg>
