<svg t="1772431665102" class="icon" viewBox="0 0 1024 1024" version="1.1"
    xmlns="http://www.w3.org/2000/svg" p-id="6030" xmlns:xlink="http://www.w3.org/1999/xlink"
    width="200" height="200">
    <path
        d="M384 104.874667C210.901333 159.232 85.333333 320.96 85.333333 512c0 235.648 191.018667 426.666667 426.666667 426.666667 191.04 0 352.768-125.568 407.125333-298.666667h-90.602666C777.877333 765.098667 655.253333 853.333333 512 853.333333c-188.522667 0-341.333333-152.810667-341.333333-341.333333 0-143.253333 88.234667-265.877333 213.333333-316.522667V104.874667z"
        p-id="6031"></path>
    <path
        d="M469.333333 85.333333h42.666667c235.648 0 426.666667 191.018667 426.666667 426.666667v42.666667H469.333333V85.333333z m85.333334 87.978667V469.333333h296.021333C831.445333 314.944 709.056 192.554667 554.666667 173.312z"
        p-id="6032"></path>
</svg>