<svg t="1762933995362" class="icon" viewBox="0 0 1024 1024" version="1.1"
    xmlns="http://www.w3.org/2000/svg" p-id="1710" xmlns:xlink="http://www.w3.org/1999/xlink"
    width="200" height="200">
    <path
        d="M391.082667 453.12c-91.136-92.501333-124.245333-191.374222-91.477334-290.816 36.693333-111.303111 163.214222-130.161778 308.536889-87.694222 133.603556 39.082667 242.090667 114.119111 229.461334 198.001778-11.320889 75.008-62.776889 110.222222-143.189334 130.019555-8.248889 2.048-11.52 2.759111-28.501333 6.428445-15.160889 3.299556-30.435556 10.808889-45.880889 23.096888 10.154667 11.576889 18.232889 24.576 24.120889 38.485334 126.805333-28.529778 228.096-6.855111 296.163555 69.376 78.051556 87.438222 31.118222 206.421333-78.336 311.04-100.664889 96.142222-219.875556 152.604444-286.208 99.726222-59.733333-47.672889-67.413333-106.325333-45.340444-178.005333 2.446222-7.964444 1.905778-6.371556 9.329778-27.904l3.697778-11.008c6.087111-19.000889 6.200889-41.642667-0.568889-68.721778a142.563556 142.563556 0 0 1-35.271111 3.043555c-40.874667 137.756444-111.672889 222.065778-214.186667 243.399112-114.517333 23.836444-193.592889-73.984-228.721778-218.851556-31.402667-129.507556-21.504-259.441778 48.042667-298.780444 72.846222-41.244444 141.198222-0.170667 211.228444 76.999111 11.548444 12.743111 27.676444 22.983111 49.066667 30.464a141.937778 141.937778 0 0 1 18.033778-48.327111z m38.4-42.097778a142.307556 142.307556 0 0 1 143.900444-13.824c25.486222-23.04 52.337778-37.632 80.497778-43.719111 48.412444-10.496 117.646222-24.263111 127.431111-89.315555 13.368889-88.576-375.182222-243.228444-427.690667-84.053334-25.116444 76.231111 0.170667 153.173333 75.861334 230.912z m168.732444 229.063111l-1.877333 4.664889c10.951111 39.537778 11.377778 75.036444 1.28 106.496-15.132444 47.189333-45.511111 107.861333 13.653333 155.050667 69.973333 55.808 398.222222-203.349333 286.606222-328.391111-52.792889-59.136-133.603556-76.288-242.488889-51.484445a141.568 141.568 0 0 1-19.057777 70.741334 141.767111 141.767111 0 0 1-38.115556 42.922666z m-222.606222-77.852444l-0.881778-0.910222c-39.736889-10.296889-70.684444-27.676444-92.871111-52.138667-33.28-36.693333-94.151111-92.273778-141.084444-65.706667-79.388444 44.885333-23.04 446.577778 141.084444 412.416 78.136889-16.270222 134.940444-83.342222 170.439111-201.301333a141.795556 141.795556 0 0 1-76.686222-92.387556z m94.890667 37.717333a85.333333 85.333333 0 1 0 85.333333-147.797333 85.333333 85.333333 0 0 0-85.333333 147.797333z"
        p-id="1711"></path>
</svg>