<svg class="icon" width="200px" height="200.00px" viewBox="0 0 1024 1024" version="1.1"
    xmlns="http://www.w3.org/2000/svg">
    <path
        d="M418.9 146.14H204.95a58.799 58.799 0 0 0-41.6 17.21 58.716 58.716 0 0 0-17.21 41.59v213.94a58.758 58.758 0 0 0 58.8 58.8h213.94a58.758 58.758 0 0 0 58.8-58.8V204.95c0.01-15.6-6.18-30.56-17.21-41.59a58.687 58.687 0 0 0-41.57-17.22zM860.65 163.36a58.716 58.716 0 0 0-41.59-17.21H605.11a58.758 58.758 0 0 0-58.8 58.8v213.94a58.758 58.758 0 0 0 58.8 58.8h213.93c15.6 0.01 30.56-6.18 41.59-17.21a58.768 58.768 0 0 0 17.22-41.59V204.95c0.02-15.6-6.17-30.56-17.2-41.59zM418.89 546.31l0.01-0.01H204.95a58.799 58.799 0 0 0-41.6 17.21 58.716 58.716 0 0 0-17.21 41.59v213.94a58.799 58.799 0 0 0 17.21 41.6 58.716 58.716 0 0 0 41.59 17.21h213.94a58.758 58.758 0 0 0 58.8-58.8V605.11c0.01-15.6-6.18-30.56-17.21-41.59a58.718 58.718 0 0 0-41.58-17.21zM819.06 546.31v-0.01H605.11a58.758 58.758 0 0 0-58.8 58.8v213.94a58.79 58.79 0 0 0 17.2 41.59 58.768 58.768 0 0 0 41.59 17.22h213.95c15.6 0.01 30.56-6.18 41.6-17.21a58.716 58.716 0 0 0 17.21-41.59V605.11a58.758 58.758 0 0 0-58.8-58.8z"
    />
</svg>