<svg t="1772162806641" class="icon" viewBox="0 0 1024 1024" version="1.1"
    xmlns="http://www.w3.org/2000/svg" p-id="3627" xmlns:xlink="http://www.w3.org/1999/xlink"
    width="200" height="200">
    <path
        d="M811.3626 74.661444l-474.482525 79.264275c-1.538029 0.243547-2.975774 0.698918-4.369517 1.231037l-17.139356 0c-11.68718 0-20.971637 9.347902-20.971637 20.87033l0 542.41266c-18.513656-10.704806-40.041972-16.815991-62.98552-16.815991-69.565379 0-125.966946 56.263421-125.966946 125.680421 0 69.422116 56.400544 125.677351 125.966946 125.677351 69.563332 0 125.965923-56.256258 125.965923-125.677351 0-5.087878-0.305969-10.086729-0.88209-14.965853 0.576121-1.930979 0.88209-3.936659 0.88209-6.069229L357.379968 365.142258l440.884312-77.745688 0 305.3208c-18.514679-10.663874-40.040948-16.814967-62.98552-16.814967-69.565379 0-125.965923 56.30026-125.965923 125.721353 0 69.381184 56.399521 125.680421 125.965923 125.680421s125.966946-56.30026 125.966946-125.680421c0-5.085832-0.306992-10.084683-0.881067-15.006785 0.575098-1.930979 0.881067-3.937682 0.881067-6.068206L861.245707 94.058213c0-10.254551-7.442506-18.821671-17.241686-20.545942-3.423983-2.130524-7.729032-2.994194-12.465916-2.213411l-11.153014 1.886977-1.149173 0C816.448432 73.186859 813.780673 73.718979 811.3626 74.661444L811.3626 74.661444zM811.3626 74.661444"
        p-id="3628"></path>
</svg>