<svg t="1765181341444" class="icon" viewBox="0 0 1824 1024" version="1.1"
    xmlns="http://www.w3.org/2000/svg" p-id="11996" xmlns:xlink="http://www.w3.org/1999/xlink"
    width="356.25" height="200">
    <path
        d="M1275.345455 104.261818h-0.037237a39.098182 39.098182 0 1 1-0.018618-78.196363 39.098182 39.098182 0 0 1 0.055855 78.196363m0-104.261818a65.163636 65.163636 0 1 0 0 130.327273 65.163636 65.163636 0 0 0 0-130.327273M288.581818 569.716364h-0.037236a39.098182 39.098182 0 1 1-0.037237-78.196364 39.098182 39.098182 0 0 1 0.074473 78.196364m0-104.261819a65.163636 65.163636 0 1 0 0 130.327273 65.163636 65.163636 0 0 0 0-130.327273M363.054545 93.090909a13.032727 13.032727 0 0 1 13.032728 13.032727v39.098182h39.098182a13.032727 13.032727 0 0 1 0 26.065455h-39.098182v39.098182a13.032727 13.032727 0 0 1-26.065455 0V171.287273h-39.098182a13.032727 13.032727 0 0 1 0-26.065455h39.098182V106.123636a13.032727 13.032727 0 0 1 13.032727-13.032727M1541.026909 618.663564a14.596655 14.596655 0 0 1 0 20.628945L1510.064873 670.254545l30.962036 30.962037a14.596655 14.596655 0 1 1-20.647564 20.628945L1489.454545 690.883491l-30.9248 30.943418a14.596655 14.596655 0 1 1-20.647563-20.628945L1468.788364 670.254545l-30.906182-30.9248a14.578036 14.578036 0 1 1 20.610327-20.666181L1489.454545 649.6256l30.9248-30.9248a14.596655 14.596655 0 0 1 20.647564 0v-0.018618zM600.436364 1005.381818c7.726545 0 13.963636 4.170473 13.963636 9.309091s-6.237091 9.309091-13.963636 9.309091h-363.054546c-7.707927 0-13.963636-4.170473-13.963636-9.309091s6.255709-9.309091 13.963636-9.309091h363.054546zM768.930909 1005.381818c7.205236 0 13.032727 4.170473 13.032727 9.309091s-5.827491 9.309091-13.032727 9.309091h-104.261818c-7.186618 0-13.032727-4.170473-13.032727-9.309091s5.846109-9.309091 13.032727-9.309091h104.261818zM1643.687564 1005.381818c7.354182 0 13.330618 4.170473 13.330618 9.309091s-5.976436 9.309091-13.330618 9.309091H869.7856c-7.3728 0-13.349236-4.170473-13.349236-9.309091s5.976436-9.309091 13.349236-9.309091h773.901964zM1812.107636 856.436364c6.888727 0 12.474182 4.170473 12.474182 9.309091s-5.585455 9.309091-12.474182 9.30909h-179.851636c-6.888727 0-12.474182-4.170473-12.474182-9.30909s5.585455-9.309091 12.474182-9.309091h179.851636zM1475.826036 856.436364c7.521745 0 13.628509 4.170473 13.628509 9.309091s-6.106764 9.309091-13.628509 9.30909H13.628509C6.088145 875.054545 0 870.884073 0 865.745455s6.088145-9.309091 13.628509-9.309091h1462.197527zM893.672727 828.509091c-170.356364 0-307.2-136.843636-307.2-307.2S723.316364 214.109091 893.672727 214.109091 1200.872727 350.952727 1200.872727 521.309091 1064.029091 828.509091 893.672727 828.509091M893.672727 186.181818c-184.32 0-335.127273 150.807273-335.127272 335.127273s150.807273 335.127273 335.127272 335.127273 335.127273-150.807273 335.127273-335.127273-150.807273-335.127273-335.127273-335.127273"
        p-id="11997"></path>
    <path
        d="M1034.6496 429.614545c28.206545 51.144145 19.753891 113.645382-19.735273 153.413819L938.728727 662.621091c-8.471273 8.527127-11.282618 19.884218-11.282618 31.241309l5.641309 39.787055c0 2.848582 0 8.527127-2.829963 11.35709 0 2.8672-2.811345 2.8672-2.811346 2.8672-8.471273 8.508509-19.735273 8.508509-28.206545 0l-225.670982-227.328-2.829964-2.848581c-5.622691-8.527127-2.811345-22.7328 8.471273-25.581382 2.811345-2.829964 5.641309-2.829964 8.471273-2.829964h2.811345l39.489164 5.678546c11.282618 2.848582 22.565236-2.848582 31.036509-11.357091l73.337018-79.574109c22.565236-22.7328 56.413091-36.938473 90.260945-36.938473 16.942545 0 33.847855 2.848582 47.960437 8.527127l16.942545 8.508509 8.434037 5.697164 19.753891-19.884218c5.641309-5.697164 14.112582-8.545745 22.565236-5.697164 2.829964 0 5.641309 2.848582 8.471273 5.697164 8.452655 8.508509 8.452655 22.714182 0 31.241309l-19.735273 19.902836 5.622691 8.527127zM1065.704727 350.021818a49.133382 49.133382 0 0 0-70.525672 0l-2.811346 2.848582-11.301236-5.678545c-19.735273-8.527127-39.470545-11.375709-59.205818-11.37571a155.182545 155.182545 0 0 0-110.033455 45.4656l-76.148364 79.57411c0 2.829964-2.829964 2.829964-5.659927 2.829963l-39.489164-5.678545a51.758545 51.758545 0 0 0-45.130472 14.205672c-16.942545 19.884218-16.942545 51.144145 2.811345 68.1984l225.670982 227.328c8.471273 8.527127 16.942545 11.357091 28.206545 14.205673h5.64131c16.942545 0 33.847855-8.527127 42.319127-22.714182 5.641309-8.564364 8.452655-19.921455 5.641309-31.278545l-5.641309-39.787055c0-2.829964 0-5.678545 2.811345-5.678545l76.166982-76.706909c45.130473-45.484218 59.243055-110.834036 33.847855-170.505309 0-2.848582-2.811345-5.678545-5.641309-11.357091l2.829963-2.848582c25.376582-19.902836 25.376582-51.144145 5.641309-71.046982z"
        p-id="11998"></path>
    <path
        d="M1153.210182 471.821964c0-8.508509-8.471273-14.187055-14.112582-11.357091-8.489891 0-14.1312 8.527127-14.1312 14.205672 2.829964 25.562764 0 53.936873-5.641309 79.499637-8.489891 25.544145-19.791127 51.106909-36.752291 73.821091-2.811345 2.829964-2.811345 5.678545-2.811345 8.508509 0 8.527127 5.641309 14.205673 14.112581 14.205673 5.659927 0 8.489891-2.829964 11.319855-5.678546a254.119564 254.119564 0 0 0 42.374982-82.3296c5.641309-28.411345 8.471273-59.634036 5.641309-90.856727zM944.128 261.715782c-62.166109-5.678545-124.3136 11.357091-172.367127 51.106909-5.641309 2.848582-5.641309 5.678545-5.641309 8.527127 0 8.508509 5.641309 14.187055 14.1312 14.187055 2.829964 0 5.641309 0 8.471272-2.829964a240.565527 240.565527 0 0 1 70.637382-36.919854c28.2624-8.508509 53.694836-8.508509 81.938618-5.678546 8.471273 0 14.149818-5.678545 16.942546-11.357091-2.792727-11.357091-8.471273-17.035636-14.112582-17.035636z m-161.047273 417.3824c-8.489891 2.848582-16.961164 2.848582-25.432436 0-16.942545-5.678545-25.432436-25.544145-19.772509-42.5984l45.204945 42.5984z m-56.5248-76.669673c-25.413818 25.562764-25.413818 62.482618 0 88.026764 11.319855 11.357091 28.2624 17.035636 42.3936 17.035636 16.942545 0 33.885091-5.678545 45.204946-19.8656l8.471272-8.527127-87.579927-88.026764-8.489891 11.357091z"
        p-id="11999"></path>
</svg>