<svg t="1772087396748" class="icon" viewBox="0 0 1024 1024" version="1.1"
    xmlns="http://www.w3.org/2000/svg" p-id="7843" xmlns:xlink="http://www.w3.org/1999/xlink"
    width="200" height="200">
    <path
        d="M73.159111 341.333333c40.391111 0 73.102222 25.486222 73.102222 56.888889v227.555556c0 31.402667-32.711111 56.888889-73.102222 56.888889S0 657.180444 0 625.777778V398.222222c0-31.402667 32.768-56.888889 73.159111-56.888889z m292.579556-227.555555c40.391111 0 73.102222 25.486222 73.102222 56.888889v682.666666c0 31.402667-32.711111 56.888889-73.102222 56.888889s-73.159111-25.486222-73.159111-56.888889V170.666667c0-31.402667 32.768-56.888889 73.159111-56.888889z m292.522666 142.222222c40.391111 0 73.159111 25.486222 73.159111 56.888889v398.222222c0 31.402667-32.768 56.888889-73.159111 56.888889-40.391111 0-73.102222-25.486222-73.102222-56.888889v-398.222222c0-31.402667 32.711111-56.888889 73.102222-56.888889zM950.840889 341.333333C991.232 341.333333 1024 366.819556 1024 398.222222v256c0 31.402667-32.768 56.888889-73.159111 56.888889-40.391111 0-73.102222-25.486222-73.102222-56.888889V398.222222c0-31.402667 32.711111-56.888889 73.102222-56.888889z"
        p-id="7844"></path>
</svg>