<svg t="1760410882595" class="icon" viewBox="0 0 2413 1024" version="1.1"
    xmlns="http://www.w3.org/2000/svg" p-id="5393" xmlns:xlink="http://www.w3.org/1999/xlink"
    width="471.2890625">
    <path
        d="M1186.048 56.411429v902.710857c0 31.158857-16.841143 56.411429-37.632 56.411428-20.772571 0-37.613714-25.252571-37.613714-56.411428V56.411429c0-31.158857 16.841143-56.411429 37.613714-56.411429 20.790857 0 37.632 25.252571 37.632 56.411429zM941.494857 197.485714V846.262857c0 31.158857-16.822857 56.411429-37.613714 56.411429s-37.632-25.252571-37.632-56.411429V197.467429c0-31.158857 16.841143-56.429714 37.632-56.429715 20.772571 0 37.613714 25.270857 37.613714 56.429715z m357.412572 28.214857v592.384c0 31.158857-16.822857 56.429714-37.613715 56.429715-20.772571 0-37.632-25.270857-37.632-56.429715V225.682286c0-31.158857 16.859429-56.429714 37.632-56.429715 20.772571 0 37.613714 25.270857 37.613715 56.429715z m733.659428-28.214857v620.617143c0 31.140571-16.841143 56.411429-37.632 56.411429-20.772571 0-37.613714-25.270857-37.613714-56.429715v-620.617142c0-31.140571 16.822857-56.411429 37.613714-56.411429s37.632 25.270857 37.632 56.429714zM320.731429 430.189714v178.432c0 20.150857-7.186286 38.765714-18.834286 48.859429-11.629714 10.057143-25.965714 10.057143-37.613714 0-11.629714-10.075429-18.797714-28.708571-18.797715-48.859429v-178.432c0-31.158857 16.822857-56.411429 37.613715-56.411428 20.772571 0 37.632 25.252571 37.632 56.411428z m1109.869714-148.096v479.561143c0 31.158857-16.859429 56.411429-37.632 56.411429-20.772571 0-37.613714-25.252571-37.613714-56.411429V282.093714c0-31.158857 16.822857-56.411429 37.613714-56.411428s37.632 25.252571 37.632 56.411428z m489.088-28.214857v507.776c0 31.158857-16.841143 56.411429-37.613714 56.411429-20.790857 0-37.632-25.252571-37.632-56.411429V253.878857c0-31.158857 16.841143-56.411429 37.632-56.411428 20.772571 0 37.613714 25.252571 37.613714 56.411428z m-865.316572 28.214857v479.561143c0 20.150857-7.168 38.784-18.816 48.859429-11.648 10.093714-25.965714 10.093714-37.632 0-11.629714-10.075429-18.797714-28.708571-18.797714-48.859429V282.093714c0-31.158857 16.822857-56.411429 37.613714-56.411428s37.632 25.252571 37.632 56.411428z m-601.965714 0v479.561143c0 31.158857-16.841143 56.411429-37.632 56.411429-20.772571 0-37.613714-25.252571-37.613714-56.411429V282.093714c0-31.158857 16.841143-56.411429 37.613714-56.411428 20.790857 0 37.632 25.252571 37.632 56.411428z m1335.606857 84.626286v310.308571c0 31.158857-16.841143 56.411429-37.632 56.411429-20.772571 0-37.613714-25.252571-37.613714-56.411429v-310.308571c0-31.158857 16.841143-56.411429 37.613714-56.411429 20.790857 0 37.632 25.252571 37.632 56.411429z m-244.553143 0v282.093714c0 31.158857-16.841143 56.411429-37.613714 56.411429-20.790857 0-37.632-25.234286-37.632-56.411429V366.72c0-31.158857 16.841143-56.411429 37.632-56.411429 20.772571 0 37.613714 25.252571 37.613714 56.411429z m620.781715 0v282.093714c0 31.158857-16.841143 56.411429-37.632 56.411429-20.772571 0-37.613714-25.234286-37.613715-56.411429V366.72c0-31.158857 16.841143-56.411429 37.613715-56.411429 20.790857 0 37.632 25.252571 37.632 56.411429z m-1354.422857 28.214857v253.878857c0 20.150857-7.168 38.784-18.816 48.859429-11.629714 10.075429-25.965714 10.075429-37.613715 0s-18.816-28.708571-18.816-48.859429V394.934857c0-31.158857 16.841143-56.429714 37.632-56.429714 20.772571 0 37.613714 25.270857 37.613715 56.429714z m-244.553143-28.214857v282.093714c0 31.158857-16.822857 56.411429-37.613715 56.411429s-37.632-25.234286-37.632-56.411429V366.72c0-31.158857 16.841143-56.411429 37.632-56.411429 20.772571 0 37.613714 25.252571 37.613715 56.411429z m-357.412572 0v282.093714c0 20.150857-7.168 38.784-18.816 48.859429-11.629714 10.093714-25.965714 10.093714-37.613714 0-11.648-10.057143-18.816-28.708571-18.816-48.859429V366.72c0-31.158857 16.841143-56.411429 37.632-56.411429 20.772571 0 37.613714 25.252571 37.613714 56.411429zM1675.154286 423.131429v197.485714c0 31.140571-16.822857 56.411429-37.613715 56.411428-20.772571 0-37.632-25.270857-37.632-56.429714V423.131429c0-31.158857 16.859429-56.411429 37.632-56.411429 20.772571 0 37.613714 25.252571 37.613715 56.411429z m601.965714 0v197.485714c0 31.140571-16.822857 56.393143-37.613714 56.393143-20.772571 0-37.613714-25.234286-37.632-56.411429V423.131429c0-31.158857 16.859429-56.411429 37.632-56.411429 20.772571 0 37.613714 25.252571 37.613714 56.411429z m-1580.141714 0v197.485714c0 20.150857-7.186286 38.765714-18.834286 48.841143-11.629714 10.093714-25.965714 10.093714-37.613714 0-11.629714-10.057143-18.797714-28.708571-18.797715-48.859429V423.131429c0-31.158857 16.822857-56.411429 37.613715-56.411429 20.772571 0 37.632 25.252571 37.632 56.411429z m-620.8 0v197.485714c0 20.150857-7.149714 38.765714-18.797715 48.859428-11.629714 10.075429-25.965714 10.075429-37.613714 0S0.914286 640.768 0.914286 620.598857V423.131429c0-31.158857 16.859429-56.411429 37.632-56.411429 20.790857 0 37.632 25.252571 37.632 56.411429z m2332.635428 56.429714v84.626286c0 31.158857-16.859429 56.411429-37.632 56.411428-20.772571 0-37.613714-25.252571-37.613714-56.411428v-84.626286c0-31.158857 16.822857-56.429714 37.613714-56.429714 20.772571 0 37.632 25.270857 37.632 56.429714z"
        fill="#FFFFFF" p-id="5394"></path>
</svg>