<svg t="1754547189585" class="icon" viewBox="0 0 1024 1024" version="1.1"
    xmlns="http://www.w3.org/2000/svg" p-id="1628" xmlns:xlink="http://www.w3.org/1999/xlink"
    width="200" height="200">
    <path
        d="M568.682667 93.290667a42.666667 42.666667 0 0 1 60.330666 0l301.717334 301.696a42.666667 42.666667 0 0 1 0 60.330666L572.672 813.354667a128 128 0 0 1-121.557333 33.685333l-74.496-18.624-79.466667 79.445333a128 128 0 0 1-181.013333-181.013333l79.466666-79.466667-18.624-74.496a128 128 0 0 1 33.664-121.557333L568.682667 93.290667z m30.165333 90.496l-327.872 327.893333a42.666667 42.666667 0 0 0-11.221333 40.512l24.490666 97.92a42.666667 42.666667 0 0 1-11.221333 40.533333l-96.554667 96.533334a42.666667 42.666667 0 0 0 60.352 60.352l96.533334-96.554667a42.666667 42.666667 0 0 1 40.533333-11.221333l97.92 24.490666a42.666667 42.666667 0 0 0 40.533333-11.221333l327.872-327.893333L598.848 183.808z"
        p-id="1629"></path>
    <path
        d="M523.434667 379.904l120.661333 120.661333-60.330667 60.352-120.682666-120.682666 60.352-60.330667zM236.8 666.517333l120.682667 120.661334-60.330667 60.352-120.682667-120.682667 60.352-60.330667z"
        p-id="1630"></path>
    <path
        d="M568.682667 304.469333a42.666667 42.666667 0 0 1 60.330666 0l90.517334 90.517334a42.666667 42.666667 0 0 1 0 60.330666l-181.013334 181.013334a42.666667 42.666667 0 0 1-60.352 0l-90.496-90.496a42.666667 42.666667 0 0 1 0-60.352l181.013334-181.013334z m30.165333 90.517334l-120.682667 120.682666 30.186667 30.165334 120.661333-120.682667-30.165333-30.165333z"
        p-id="1631"></path>
</svg>