<svg t="1765852904009" class="icon" viewBox="0 0 1024 1024" version="1.1"
    xmlns="http://www.w3.org/2000/svg" p-id="2172" xmlns:xlink="http://www.w3.org/1999/xlink"
    width="200" height="200">
    <path
        d="M506.666667 146.688c-68.266667 0-123.818667 56.746667-123.818667 126.506667v195.584c0 69.802667 55.552 126.549333 123.818667 126.549333h10.624c68.266667 0 123.861333-56.746667 123.861333-126.549333V273.194667c0-69.76-55.552-126.506667-123.861333-126.506667h-10.624z m10.624 510.037333h-10.624c-101.376 0-183.893333-84.309333-183.893334-187.946666V273.194667C322.816 169.6 405.333333 85.333333 506.709333 85.333333h10.624c101.418667 0 183.893333 84.266667 183.893334 187.861334v195.584c0 103.68-82.474667 187.946667-183.893334 187.946666zM387.413333 726.869333c-96.64-48.896-156.672-147.669333-156.672-257.792a30.421333 30.421333 0 0 0-30.037333-30.72 30.378667 30.378667 0 0 0-30.037333 30.72c0 133.632 72.874667 253.44 190.08 312.746667A29.909333 29.909333 0 0 0 400.981333 768a31.018667 31.018667 0 0 0-13.568-41.130667zM853.333333 469.077333a30.378667 30.378667 0 0 0-30.037333-30.72 30.378667 30.378667 0 0 0-29.994667 30.72c0 158.464-126.208 287.402667-281.258666 287.402667a30.421333 30.421333 0 0 0-30.08 30.72v120.746667c0 16.981333 13.44 30.72 30.08 30.72a30.378667 30.378667 0 0 0 29.994666-30.72v-91.605334c174.122667-15.658667 311.296-165.290667 311.296-347.306666z"
        p-id="2173"></path>
</svg>